<svg width="25" height="24" viewBox="0 0 25 24" fill="none" xmlns="http://www.w3.org/2000/svg">
<path fill-rule="evenodd" clip-rule="evenodd" d="M6.98902 2.66974C4.0029 4.14722 1.57606 5.37182 1.59603 5.39101C1.61601 5.4102 2.58304 5.89353 3.74502 6.46512L5.85771 7.50432L11.2835 4.72439C14.2676 3.19549 16.7087 1.93236 16.7081 1.91753C16.7075 1.90275 15.8476 1.46978 14.7971 0.955433C13.256 0.200834 12.842 0.0167006 12.6528 0.00182542C12.4238 -0.0161468 12.2899 0.0469671 6.98902 2.66974ZM13.3263 5.72774C8.86854 8.01115 7.91703 8.51494 7.9802 8.55839C8.02246 8.58748 9.08708 9.11886 10.346 9.73925L12.6351 10.8672L15.9032 9.24725C17.7006 8.35624 20.1948 7.12052 21.4457 6.50125L23.7201 5.37529L21.2641 4.16082C19.9133 3.4929 18.7949 2.94721 18.7786 2.94819C18.7625 2.94918 16.3089 4.19996 13.3263 5.72774ZM0.625108 12.4085C0.626093 17.5937 0.630126 17.8537 0.712709 18.0328C0.760308 18.136 0.84955 18.266 0.910983 18.3217C0.972416 18.3773 3.41788 19.6729 6.34533 21.2008C9.27278 22.7286 11.6838 23.9883 11.7031 24C11.7225 24.0116 11.7383 21.4159 11.7383 18.2315V12.4419L9.36582 11.2722C8.06096 10.6288 6.97415 10.0954 6.9507 10.0868C6.92566 10.0776 6.90808 10.7342 6.90808 11.6792C6.90808 13.2219 6.90404 13.2955 6.80861 13.4928C6.56902 13.988 5.87886 14.1321 5.46942 13.7724C5.12544 13.4702 5.12839 13.4922 5.12586 11.2052L5.12361 9.16396L2.95591 8.09904C1.76368 7.51333 0.751257 7.02015 0.706143 7.00302C0.628297 6.9735 0.624123 7.24998 0.625108 12.4085ZM19.0775 9.70261L13.5907 12.4162L13.562 14.5206C13.5462 15.678 13.5304 18.2773 13.5268 20.2969C13.5217 23.2083 13.5325 23.968 13.579 23.9651C13.6112 23.9631 16.1066 22.6694 19.1244 21.0902L24.6111 18.2189L24.623 12.6004C24.6296 9.51026 24.6191 6.98354 24.5996 6.98547C24.5801 6.98739 22.0952 8.21007 19.0775 9.70261Z" fill="#B1404B"/>
</svg>
